<svg xmlns="http://www.w3.org/2000/svg" viewBox="0 0 1053.23 444.97"><defs><style>.cls-1{fill:#94b3c0;}.cls-2{fill:#e35103;}.cls-3{font-size:160.77px;}.cls-3,.cls-5,.cls-6{fill:#272525;font-family:ArialMT, Arial;}.cls-4{fill:#e35000;}.cls-5{font-size:373.64px;stroke:#fff;stroke-miterlimit:10;stroke-width:3px;}.cls-6{font-size:49.45px;}</style></defs><g id="Layer_2" data-name="Layer 2"><g id="Layer_1-2" data-name="Layer 1"><rect class="cls-1" x="67.27" y="86.93" width="10.07" height="54.8"/><rect class="cls-1" x="67.27" y="255.04" width="10.07" height="34.68"/><rect class="cls-1" x="79.31" y="86.93" width="48.98" height="54.8"/><rect class="cls-1" x="67.27" y="142.97" width="10.07" height="54.8"/><rect class="cls-1" x="67.27" y="199.01" width="10.07" height="54.8"/><rect class="cls-1" x="79.31" y="142.97" width="48.98" height="54.8"/><rect class="cls-1" x="79.31" y="199.01" width="48.98" height="54.8"/><rect class="cls-1" x="79.31" y="255.04" width="48.98" height="34.68"/><rect class="cls-1" x="130.28" y="86.93" width="48.98" height="54.8"/><rect class="cls-1" x="130.28" y="142.97" width="48.98" height="54.8"/><rect class="cls-1" x="130.28" y="199.01" width="48.98" height="54.8"/><rect class="cls-1" x="130.28" y="255.04" width="48.98" height="34.68"/><rect class="cls-1" x="181.26" y="86.93" width="36.89" height="54.8"/><rect class="cls-1" x="181.26" y="142.97" width="36.89" height="54.8"/><rect class="cls-1" x="181.26" y="199.01" width="36.89" height="54.8"/><rect class="cls-1" x="181.26" y="255.04" width="36.89" height="34.68"/><path class="cls-2" d="M175.66,201.13c0,1.53-.1,3.26,2.21,4,3.13-.57,6.11-2.8,9.76-2,1.67,3.43-.63,6.19-2,8.92a41.8,41.8,0,0,1-9.7,11.86c-3.49,3.1-5.44,7.18-7.41,11,1.55,6,3.8,11.48,3.06,18-2.59,3.32-8,4-9.82,7.84.35,2.77.64,5,.94,7.4l-3.87,2.61a26,26,0,0,1-1.31,4.38c-2.14,4.17-5.27,7.58-9.23,11.27-2.47.22-5.55.47-8.62.82-.3,0-.54.64-.81,1h-3.08l-1.38-7-4.77-9.27v-5.79c-6.09-10.25-4.77-12.68-1.13-21.35l-1.23-6.52c-2-4.15-3.21-9-6.73-12,.68-2.75,1.4-5.19,1.83-7.69.1-.6-.74-1.37-1.21-2.17H116l-3-3.94c-4.08-1-6.8,1.4-10.1,2.85-3.26-1.83-6.58-1.35-9.76,1L84.52,209v-2.45l-5-4.42-.91-5.87,1.74-3.38c-.33-2.12.3-4.66-.83-7.35-.68-1.62.41-4.07,2-5.69,1-1.07,2.53-1.9,1.84-4.07l8.28-6.88v-3.24l6.53-6.25-1.91-5-2.11,1.28L93,152.08l1.64-4.53-1.17-2.35,2.76-1.43c2.43,1.84,5.39.11,8,1,2.28-2.75,2.28-2.75.54-7l-3.94-1.79,1.71-1.71,3,1.37.76-2.27,1.21.87a2.65,2.65,0,0,0,1.58-2.94c1.93.38,3.43-.7,5.08-1.47v-2.39l6.27-1.81-1.08-4.14,2.86-2.2.43,2.66h2.85c0-.79.28-1.74-.06-2.35a28,28,0,0,0-2.61-3.51l-2,1.85h-3.06l-1.5-1.49v-5.54l4.69-2,1,.92,5.61-7.08V100.8l11.56-3.44,1.11.89,5.31-1.16.56,2,12,3c.25.53.73,1.53,1.21,2.6-2.66-.52-5.46.68-8.28-1,.28,2.75,2.63,3.48,3.84,5.37l4.44-1.68v-2.68c1.32-.08,2.64-.08,4.46-.08l-1.24-2.82,2.47-.3,1,2.19,7.28-3c1.81,1.84,3.75.74,5.68-.15l2.32,1.33,1.1-2.49c1.55,1.24,3.09,2.37,4.52,3.63a75,75,0,0,1,14.78,18,84,84,0,0,1,8.91,19.86c.75,2.6,1.75,5.21,2,7.86s1.82,5,1.13,7.77c2.12,3.37.72,7.31,1.82,11s.23,7.75.23,11.55l-1.55,1.55-1.41-2.78c-6.77-.85-12.6,1.2-17.11-3.37-4.82,1.75-4.82,1.75-11.4-6.26-1.58.43-2.62,1.27-2.3,3.74l3.08,3.11v2.65l2.91-1.11v4c3.34-.11,4.9-2.36,6.82-4.14l1.52,3.35,5.06,2.8c-1.33,2.49-2.48,4.65-4,7.48-1.87.87-3.75,3.32-6.76,3.86-.14,2.74-3,1.85-4.32,3.08s-3.44,1.46-5.25,2-3.2,2.23-5.38,2.23c.62-2.75-.44-4.89-1.81-6.83l.89-1.36c-2.22-3.17-4.54-5.93-6.19-9-1.33-2.51-2.87-4.9-4.11-7.46a7.35,7.35,0,0,0-5.34-4.38,64.54,64.54,0,0,0,5.13,11.18c1.93,3.43,3.11,7.51,4.58,11.31C172.32,195.33,173,198.91,175.66,201.13Zm-50.33-59.82c1.8,4,4.4,6.79,8.9,7.41.12,0,.19.44.32.75l-2.76.44,1,2.53c-3.11-4.05-9-5-11-10.31L116,144.55l-2.19-1.39c-1,1.41-1.48,3.2-2.58,3.68-3.6,1.55-4,5.13-5.62,7.77l-6.69,2.57v2.63h5.32l4.41-3c4.45,1,8.87-2.06,13.5-.71l1.32,3.06-1.06,1.67,2.49,3.21h3.26l2.31,2.68,6.8,1.49c.57-1.56,1.06-2.89,1.47-4,3-.33,5.28-.16,7.46,1.51a7,7,0,0,0,5.54,1.43c1.26-.24,2.55.35,3.86-.69.53-.42,2.16.54,3.42.91l3.4-6.2c-.06-1-.09-2.53-.3-4a3.83,3.83,0,0,0-.69-1.37L157.06,158c-1.57-1.52-3-1.74-4.15-.46l-4.47-2.2-2.58-7-2.37,2.21-1.33-.82-.49.58,2.51,4-3.75,1.16L136.74,151v-2.89c-3.23-2.87-8-4-9.7-8.71Zm22.68,4,2.93,3.58,8.11-1.93,3,1.56h6.32l-.39-.52,2.22-.93-8.33-6.29,1.89-3.07c-3-1.12-4,.94-5.36,2.25l1.14,1.31h-2.89l-3.7-3.49Zm-12.83-20.09,2.32-3-1.17-1.7,2.16-1.31,3,.92-1.63-3.12L147,115.3l-.15-1.39c-3.34-.86-6.6,2.28-10,.51v-4.7c1.2-.74,2.47-1.45,3.64-2.31.31-.22.31-.86.54-1.59H137.8l-6,5.24v3.49l2.7,1.14a22.76,22.76,0,0,0-3.27,2.15c-1.15,1.13-.39,3.32-2.19,4.2-1.43.69-2.82,1.43-4.23,2.17-.14.07-.23.23-.42.43l3.93,1.18C132.08,123.82,132.08,123.82,135.18,125.22ZM186,150.17l2.41-1.14-1.75-2.47-1,.89-3.86-5,3.79-3.19-3.83-2-6.07,4.64c.9,3.93,4.11,5.74,6.16,8.39-1.55,1.3-.83,2.82-.79,4.19,3.65,2.52,6.92,3.23,8,1.8l-.78-3.79Z"/><path class="cls-2" d="M89.58,86.09c.24.41.5.81.72,1.24a10,10,0,0,1,.39,1.11l-2.08,2.32,1,1-5.23,4,1.15,1.15c-.75.52-1.4,1.31-2.16,1.46-5.58,1.05-9,2.42-14.47,5.8-.76.47-1.92.28-2.89.4V86.09Z"/><path class="cls-2" d="M176.77,255.66c1.73-1.33,3.47-2.83,5.38-4.11,1.75-1.17,1.64-4.06,4.45-4.59a10.17,10.17,0,0,1-.91,8.92c-1.36,2.31-1.41,4.86-2.58,7.15-1,1.91-1,4.34-1.36,6.55l-4.35,2.52-2-3.45c-1.15-1.83-.14-3.8,1.32-5.74Z"/><path class="cls-2" d="M100.87,123v-3.63l1.71-1.57,3.69,1.68-1,1.9,3.38,5.6,1.82.62-1.4,3.6c-2.6.06-5.28-.46-8.24,1.49.41-1.7,1.43-2.22,2-3l-1-1.08c1.13-1.17,2.72-2.14,1.87-4.22Z"/><path class="cls-2" d="M80,104.18c4.53,1.74,7.14,1.78,9.3.86l2.71,1c-1.84,3.17-5.06,1.89-7.19,3.59C84,107.63,81,107.39,80,104.18Z"/><path class="cls-2" d="M100.94,123.37l-1.43,4.43c-1.53.73-3.28,2.09-5.54,1.15l1-3.48C97.09,125.32,97.94,121.62,100.94,123.37Z"/><path class="cls-2" d="M128.07,156.08l-1.33-2.16,3-.19-.56,2.2Z"/><text class="cls-3" transform="translate(248.97 281.11)">ata<tspan class="cls-4" x="223.5" y="0">SHIELD</tspan></text><text class="cls-5" transform="translate(1.5 322.14)">D</text><text class="cls-6" transform="translate(283.32 324.82)">Secure Bioscience Collaboration</text></g></g></svg>